<?xml version="1.0" encoding="UTF-8"?>
<svg xmlns="http://www.w3.org/2000/svg" xmlns:xlink="http://www.w3.org/1999/xlink" width="3304.92" height="3277.81" viewBox="0 0 3304.92 3277.81">
<defs>
<clipPath id="clip-0">
<path clip-rule="nonzero" d="M 0 0 L 3304.921875 0 L 3304.921875 3277.808594 L 0 3277.808594 Z M 0 0 "/>
</clipPath>
<clipPath id="clip-1">
<path clip-rule="evenodd" d="M 1880.761719 1496.898438 C 1844.539062 1436.011719 1778.058594 1395.140625 1702.199219 1395.140625 C 1587.710938 1395.140625 1494.589844 1488.261719 1494.589844 1602.75 C 1494.589844 1717.261719 1587.730469 1810.371094 1702.199219 1810.371094 C 1816.71875 1810.371094 1909.828125 1717.261719 1909.828125 1602.75 C 1909.828125 1565.660156 1900.058594 1530.839844 1882.960938 1500.671875 C 1882.519531 1500.050781 1882.101562 1499.398438 1881.699219 1498.710938 C 1881.359375 1498.109375 1881.039062 1497.511719 1880.761719 1496.898438 Z M 1728.050781 0 L 1728.050781 1344.480469 C 1803.878906 1352.039062 1870.25 1392.429688 1912.671875 1451.199219 L 2462.738281 1133.878906 C 2463.429688 1133.359375 2464.160156 1132.890625 2464.921875 1132.460938 C 2465.691406 1132.019531 2466.449219 1131.640625 2467.210938 1131.289062 L 2748.039062 969.300781 C 2749.039062 968.5 2750.140625 967.75 2751.289062 967.089844 C 2752.371094 966.488281 2753.480469 965.949219 2754.601562 965.5 L 3077.011719 779.519531 C 2800.730469 319.660156 2300.371094 9.070312 1728.050781 0 Z M 1011.820312 486.589844 C 955.546875 486.589844 909.882812 532.25 909.882812 588.511719 C 909.882812 644.660156 955.679688 690.449219 1011.820312 690.449219 C 1067.949219 690.449219 1113.738281 644.660156 1113.738281 588.511719 C 1113.738281 532.390625 1067.949219 486.589844 1011.820312 486.589844 Z M 1849.679688 2120.71875 C 1846.640625 2108.660156 1845.011719 2096.078125 1845.011719 2083.101562 C 1845.011719 1998.558594 1914.058594 1929.53125 1998.609375 1929.53125 C 2036.769531 1929.53125 2071.808594 1943.609375 2098.730469 1966.828125 C 2190.210938 1867.050781 2240.929688 1738.851562 2240.929688 1602.488281 C 2240.929688 1516.730469 2220.261719 1432.039062 2181.070312 1355.980469 L 1938.589844 1495.878906 C 1953.328125 1528.410156 1961.519531 1564.511719 1961.5 1602.480469 C 1961.371094 1745.328125 1845.140625 1861.769531 1702.199219 1861.769531 C 1559.320312 1861.769531 1442.941406 1745.390625 1442.941406 1602.488281 C 1442.941406 1468.308594 1545.558594 1357.511719 1676.390625 1344.5 L 1676.390625 1064.429688 C 1391.210938 1077.941406 1163.519531 1314.039062 1163.519531 1602.5 C 1163.519531 1899.609375 1405.101562 2141.199219 1702.199219 2141.199219 C 1752.160156 2141.199219 1801.71875 2134.238281 1849.679688 2120.71875 Z M 1907.46875 2129.378906 C 1924.359375 2162.558594 1958.839844 2185.300781 1998.609375 2185.300781 C 2055.050781 2185.300781 2100.519531 2139.5 2100.519531 2083.101562 C 2100.519531 2026.738281 2055.050781 1980.910156 1998.609375 1980.910156 C 1942.191406 1980.910156 1896.410156 2026.710938 1896.410156 2083.101562 C 1896.410156 2097.550781 1899.410156 2111.289062 1904.820312 2123.738281 C 1905.871094 2125.390625 1906.730469 2127.199219 1907.390625 2129.171875 Z M 834.070312 1655.238281 C 917.265625 1657.128906 984.109375 1725.449219 984.109375 1809.03125 C 984.109375 1867.828125 951.042969 1918.949219 902.476562 1944.738281 C 1039.328125 2266.171875 1351.171875 2472.28125 1702.199219 2472.28125 C 2181.808594 2472.28125 2572.011719 2082.109375 2572.011719 1602.488281 C 2572.011719 1458.730469 2536.078125 1316.828125 2468.078125 1190.390625 L 2225.671875 1330.230469 C 2269.21875 1414.300781 2292.570312 1507.871094 2292.570312 1602.75 C 2292.570312 1754.390625 2237.148438 1898.621094 2132.21875 2007.589844 C 2144.929688 2029.921875 2152.179688 2055.679688 2152.179688 2083.101562 C 2152.179688 2167.761719 2083.261719 2236.679688 1998.609375 2236.679688 C 1945.449219 2236.679688 1898.539062 2209.519531 1870.929688 2168.359375 C 1816.25 2184.699219 1759.359375 2192.839844 1702.199219 2192.839844 C 1376.710938 2192.839844 1111.851562 1928.011719 1111.851562 1602.488281 C 1111.851562 1285.648438 1362.820312 1026.289062 1676.390625 1012.730469 L 1676.390625 733.378906 C 1208.691406 747.089844 832.429688 1131.800781 832.429688 1602.761719 C 832.429688 1620.269531 832.992188 1637.761719 834.070312 1655.238281 Z M 812.175781 1708.511719 C 764.546875 1717.179688 728.601562 1758.941406 728.601562 1809.050781 C 728.601562 1865.289062 774.222656 1911.25 830.535156 1911.25 C 840.175781 1911.25 849.5 1909.890625 858.339844 1907.390625 L 859.390625 1906.941406 C 860.871094 1906.371094 862.355469 1905.921875 863.855469 1905.628906 C 903.777344 1891.761719 932.460938 1853.621094 932.460938 1809.050781 C 932.460938 1752.789062 886.835938 1706.851562 830.535156 1706.851562 C 826.769531 1706.851562 823.0625 1707.039062 819.414062 1707.460938 C 817.589844 1708.039062 815.671875 1708.398438 813.648438 1708.480469 Z M 2294.328125 2646.789062 C 2286.269531 2628.140625 2281.800781 2607.621094 2281.800781 2586.058594 C 2281.800781 2501.511719 2350.851562 2432.460938 2435.378906 2432.460938 C 2472.800781 2432.460938 2507.160156 2446.011719 2533.871094 2468.421875 C 2769.128906 2243.320312 2902.820312 1928.480469 2902.820312 1602.488281 C 2902.820312 1400.71875 2851.449219 1201.78125 2754.660156 1025.039062 L 2512.828125 1164.570312 C 2585.269531 1298.859375 2623.699219 1449.679688 2623.671875 1602.480469 C 2623.539062 2110.449219 2210.230469 2523.941406 1702.199219 2523.941406 C 1328.371094 2523.941406 997.886719 2303.789062 853.175781 1960.941406 C 845.796875 1962.050781 838.21875 1962.628906 830.535156 1962.628906 C 745.894531 1962.628906 676.675781 1893.730469 676.675781 1809.03125 C 676.675781 1741.050781 721.3125 1683.03125 782.746094 1662.828125 C 781.445312 1642.828125 780.777344 1622.789062 780.777344 1602.761719 C 780.777344 1103.28125 1180.140625 695.410156 1676.390625 681.691406 L 1676.390625 401.871094 C 1495.800781 405.460938 1314.699219 447.078125 1155.078125 532.460938 C 1161.910156 549.839844 1165.671875 568.761719 1165.671875 588.53125 C 1165.671875 673.328125 1096.601562 742.378906 1011.820312 742.378906 C 971.855469 742.378906 935.464844 727.039062 908.136719 701.949219 C 649.359375 929.949219 501.339844 1256.761719 501.339844 1602.5 C 501.339844 2264.601562 1039.859375 2803.121094 1701.941406 2803.121094 C 1909.75 2803.121094 2113.730469 2748.828125 2294.328125 2646.789062 Z M 2350.75 2642.949219 C 2369.160156 2670.078125 2400.261719 2688 2435.378906 2688 C 2491.789062 2688 2537.601562 2642.191406 2537.601562 2585.769531 C 2537.601562 2561.339844 2528.910156 2538.910156 2514.511719 2521.339844 L 2513.359375 2519.980469 C 2494.578125 2497.890625 2466.578125 2483.859375 2435.378906 2483.859375 C 2379.140625 2483.859375 2333.179688 2529.480469 2333.179688 2585.769531 C 2333.179688 2606.261719 2339.300781 2625.378906 2349.71875 2641.398438 Z M 1288.839844 3277.808594 C 1384.308594 3277.808594 1462.050781 3200.089844 1462.050781 3104.878906 C 1462.050781 3009.640625 1384.328125 2931.921875 1288.839844 2931.921875 C 1193.351562 2931.921875 1115.628906 3009.640625 1115.628906 3104.878906 C 1115.628906 3200.089844 1193.351562 3277.808594 1288.839844 3277.808594 Z M 173.207031 1477.429688 C 268.417969 1477.429688 346.136719 1399.691406 346.152344 1304.21875 C 346.152344 1209.011719 268.695312 1131.269531 173.207031 1131.269531 C 77.71875 1131.269531 0 1208.730469 0 1304.21875 C 0 1399.691406 77.71875 1477.429688 173.207031 1477.429688 Z M 1702.199219 2855.019531 C 1919.839844 2855.019531 2133.878906 2798.070312 2322.511719 2690.101562 C 2350.621094 2720.539062 2390.800781 2739.628906 2435.378906 2739.628906 C 2520.050781 2739.628906 2588.980469 2670.710938 2588.980469 2586.058594 C 2588.980469 2557.328125 2581.019531 2530.429688 2567.171875 2507.371094 C 2810.160156 2269.480469 2954.21875 1944.351562 2954.21875 1602.75 C 2954.21875 1391.851562 2900.089844 1184.160156 2799.230469 999.320312 L 3102.800781 824.148438 C 3231.480469 1054.75 3304.921875 1320.191406 3304.921875 1602.488281 C 3304.921875 2486.28125 2586.011719 3205.449219 1702.199219 3205.449219 C 1633.488281 3205.449219 1564.390625 3201.058594 1495.96875 3192.210938 C 1507.371094 3165.371094 1513.691406 3135.851562 1513.691406 3104.878906 C 1513.691406 2980.988281 1412.660156 2880.28125 1288.839844 2880.28125 C 1175.410156 2880.28125 1081.148438 2964.808594 1066.109375 3074.199219 C 484.292969 2822.261719 99.507812 2242.140625 99.507812 1602.75 C 99.507812 1574.441406 100.253906 1545.929688 101.765625 1517.421875 C 124.222656 1524.96875 148.242188 1529.058594 173.207031 1529.058594 C 297.074219 1529.058594 397.773438 1428.03125 397.789062 1304.21875 C 397.789062 1184.921875 304.308594 1087.070312 186.71875 1080.058594 C 404.75 447.460938 1002.601562 10.941406 1676.390625 0.0390625 L 1676.390625 350.21875 C 1486.300781 354.121094 1297.679688 401.351562 1128.78125 488.71875 C 1100.53125 455.679688 1058.558594 434.679688 1011.820312 434.679688 C 927.128906 434.679688 858.234375 503.898438 858.234375 588.53125 C 858.234375 614.699219 864.785156 639.378906 876.355469 660.988281 C 604.890625 898.898438 449.6875 1240.761719 449.6875 1602.488281 C 449.6875 2293.230469 1011.46875 2855.019531 1702.199219 2855.019531 "/>
</clipPath>
<linearGradient id="linear-pattern-0" gradientUnits="userSpaceOnUse" x1="0" y1="0" x2="1" y2="0" gradientTransform="matrix(3304.92, 0, 0, 3304.92, 0, 1638.91)">
<stop offset="0" stop-color="rgb(13.33313%, 37.646484%, 37.646484%)" stop-opacity="1"/>
<stop offset="0.015625" stop-color="rgb(13.227844%, 37.477112%, 37.477112%)" stop-opacity="1"/>
<stop offset="0.03125" stop-color="rgb(13.020325%, 37.139893%, 37.139893%)" stop-opacity="1"/>
<stop offset="0.046875" stop-color="rgb(12.811279%, 36.802673%, 36.802673%)" stop-opacity="1"/>
<stop offset="0.0625" stop-color="rgb(12.602234%, 36.465454%, 36.465454%)" stop-opacity="1"/>
<stop offset="0.078125" stop-color="rgb(12.394714%, 36.129761%, 36.129761%)" stop-opacity="1"/>
<stop offset="0.09375" stop-color="rgb(12.185669%, 35.792542%, 35.792542%)" stop-opacity="1"/>
<stop offset="0.109375" stop-color="rgb(11.978149%, 35.455322%, 35.455322%)" stop-opacity="1"/>
<stop offset="0.125" stop-color="rgb(11.769104%, 35.118103%, 35.118103%)" stop-opacity="1"/>
<stop offset="0.140625" stop-color="rgb(11.561584%, 34.780884%, 34.780884%)" stop-opacity="1"/>
<stop offset="0.15625" stop-color="rgb(11.352539%, 34.443665%, 34.443665%)" stop-opacity="1"/>
<stop offset="0.171875" stop-color="rgb(11.14502%, 34.106445%, 34.106445%)" stop-opacity="1"/>
<stop offset="0.1875" stop-color="rgb(10.935974%, 33.770752%, 33.770752%)" stop-opacity="1"/>
<stop offset="0.203125" stop-color="rgb(10.728455%, 33.433533%, 33.433533%)" stop-opacity="1"/>
<stop offset="0.21875" stop-color="rgb(10.519409%, 33.096313%, 33.096313%)" stop-opacity="1"/>
<stop offset="0.234375" stop-color="rgb(10.31189%, 32.759094%, 32.759094%)" stop-opacity="1"/>
<stop offset="0.25" stop-color="rgb(10.102844%, 32.421875%, 32.421875%)" stop-opacity="1"/>
<stop offset="0.265625" stop-color="rgb(9.895325%, 32.084656%, 32.084656%)" stop-opacity="1"/>
<stop offset="0.28125" stop-color="rgb(9.686279%, 31.747437%, 31.747437%)" stop-opacity="1"/>
<stop offset="0.296875" stop-color="rgb(9.477234%, 31.410217%, 31.410217%)" stop-opacity="1"/>
<stop offset="0.3125" stop-color="rgb(9.269714%, 31.074524%, 31.074524%)" stop-opacity="1"/>
<stop offset="0.328125" stop-color="rgb(9.060669%, 30.737305%, 30.737305%)" stop-opacity="1"/>
<stop offset="0.34375" stop-color="rgb(8.853149%, 30.400085%, 30.400085%)" stop-opacity="1"/>
<stop offset="0.359375" stop-color="rgb(8.644104%, 30.062866%, 30.062866%)" stop-opacity="1"/>
<stop offset="0.375" stop-color="rgb(8.436584%, 29.725647%, 29.725647%)" stop-opacity="1"/>
<stop offset="0.390625" stop-color="rgb(8.227539%, 29.388428%, 29.388428%)" stop-opacity="1"/>
<stop offset="0.40625" stop-color="rgb(8.02002%, 29.051208%, 29.051208%)" stop-opacity="1"/>
<stop offset="0.421875" stop-color="rgb(7.810974%, 28.715515%, 28.715515%)" stop-opacity="1"/>
<stop offset="0.4375" stop-color="rgb(7.603455%, 28.378296%, 28.378296%)" stop-opacity="1"/>
<stop offset="0.453125" stop-color="rgb(7.394409%, 28.041077%, 28.041077%)" stop-opacity="1"/>
<stop offset="0.46875" stop-color="rgb(7.18689%, 27.703857%, 27.703857%)" stop-opacity="1"/>
<stop offset="0.484375" stop-color="rgb(6.977844%, 27.366638%, 27.366638%)" stop-opacity="1"/>
<stop offset="0.5" stop-color="rgb(6.770325%, 27.029419%, 27.029419%)" stop-opacity="1"/>
<stop offset="0.515625" stop-color="rgb(6.561279%, 26.6922%, 26.6922%)" stop-opacity="1"/>
<stop offset="0.53125" stop-color="rgb(6.352234%, 26.356506%, 26.356506%)" stop-opacity="1"/>
<stop offset="0.546875" stop-color="rgb(6.144714%, 26.019287%, 26.019287%)" stop-opacity="1"/>
<stop offset="0.5625" stop-color="rgb(5.935669%, 25.682068%, 25.682068%)" stop-opacity="1"/>
<stop offset="0.578125" stop-color="rgb(5.728149%, 25.344849%, 25.344849%)" stop-opacity="1"/>
<stop offset="0.59375" stop-color="rgb(5.519104%, 25.007629%, 25.007629%)" stop-opacity="1"/>
<stop offset="0.609375" stop-color="rgb(5.311584%, 24.67041%, 24.67041%)" stop-opacity="1"/>
<stop offset="0.625" stop-color="rgb(5.102539%, 24.333191%, 24.333191%)" stop-opacity="1"/>
<stop offset="0.640625" stop-color="rgb(4.89502%, 23.997498%, 23.997498%)" stop-opacity="1"/>
<stop offset="0.65625" stop-color="rgb(4.685974%, 23.660278%, 23.660278%)" stop-opacity="1"/>
<stop offset="0.671875" stop-color="rgb(4.478455%, 23.323059%, 23.323059%)" stop-opacity="1"/>
<stop offset="0.6875" stop-color="rgb(4.269409%, 22.98584%, 22.98584%)" stop-opacity="1"/>
<stop offset="0.703125" stop-color="rgb(4.06189%, 22.648621%, 22.648621%)" stop-opacity="1"/>
<stop offset="0.71875" stop-color="rgb(3.852844%, 22.311401%, 22.311401%)" stop-opacity="1"/>
<stop offset="0.734375" stop-color="rgb(3.645325%, 21.974182%, 21.974182%)" stop-opacity="1"/>
<stop offset="0.75" stop-color="rgb(3.436279%, 21.636963%, 21.636963%)" stop-opacity="1"/>
<stop offset="0.765625" stop-color="rgb(3.227234%, 21.30127%, 21.30127%)" stop-opacity="1"/>
<stop offset="0.78125" stop-color="rgb(3.019714%, 20.96405%, 20.96405%)" stop-opacity="1"/>
<stop offset="0.796875" stop-color="rgb(2.810669%, 20.626831%, 20.626831%)" stop-opacity="1"/>
<stop offset="0.8125" stop-color="rgb(2.603149%, 20.289612%, 20.289612%)" stop-opacity="1"/>
<stop offset="0.828125" stop-color="rgb(2.394104%, 19.952393%, 19.952393%)" stop-opacity="1"/>
<stop offset="0.84375" stop-color="rgb(2.186584%, 19.615173%, 19.615173%)" stop-opacity="1"/>
<stop offset="0.859375" stop-color="rgb(1.977539%, 19.277954%, 19.277954%)" stop-opacity="1"/>
<stop offset="0.875" stop-color="rgb(1.77002%, 18.942261%, 18.942261%)" stop-opacity="1"/>
<stop offset="0.890625" stop-color="rgb(1.560974%, 18.605042%, 18.605042%)" stop-opacity="1"/>
<stop offset="0.90625" stop-color="rgb(1.353455%, 18.267822%, 18.267822%)" stop-opacity="1"/>
<stop offset="0.921875" stop-color="rgb(1.144409%, 17.930603%, 17.930603%)" stop-opacity="1"/>
<stop offset="0.9375" stop-color="rgb(0.93689%, 17.593384%, 17.593384%)" stop-opacity="1"/>
<stop offset="0.953125" stop-color="rgb(0.727844%, 17.256165%, 17.256165%)" stop-opacity="1"/>
<stop offset="0.96875" stop-color="rgb(0.520325%, 16.918945%, 16.918945%)" stop-opacity="1"/>
<stop offset="0.984375" stop-color="rgb(0.311279%, 16.583252%, 16.583252%)" stop-opacity="1"/>
<stop offset="1" stop-color="rgb(0.10376%, 16.246033%, 16.246033%)" stop-opacity="1"/>
</linearGradient>
</defs>
<g clip-path="url(#clip-0)">
<g clip-path="url(#clip-1)">
<path fill-rule="nonzero" fill="url(#linear-pattern-0)" d="M 0 0 L 0 3277.808594 L 3304.921875 3277.808594 L 3304.921875 0 Z M 0 0 "/>
</g>
</g>
</svg>
